<svg width="24" height="24" viewBox="0 0 24 24" fill="none" xmlns="http://www.w3.org/2000/svg">
<path d="M10 7H8C7.44772 7 7 7.44772 7 8V10C7 10.5523 7.44772 11 8 11H10C10.5523 11 11 10.5523 11 10V8C11 7.44772 10.5523 7 10 7Z" stroke="#161719" stroke-linecap="round" stroke-linejoin="round"/>
<path d="M16 7H14C13.4477 7 13 7.44772 13 8V10C13 10.5523 13.4477 11 14 11H16C16.5523 11 17 10.5523 17 10V8C17 7.44772 16.5523 7 16 7Z" stroke="#161719" stroke-linecap="round" stroke-linejoin="round"/>
<path d="M10 13H8C7.44772 13 7 13.4477 7 14V16C7 16.5523 7.44772 17 8 17H10C10.5523 17 11 16.5523 11 16V14C11 13.4477 10.5523 13 10 13Z" stroke="#161719" stroke-linecap="round" stroke-linejoin="round"/>
<path d="M16 13H14C13.4477 13 13 13.4477 13 14V16C13 16.5523 13.4477 17 14 17H16C16.5523 17 17 16.5523 17 16V14C17 13.4477 16.5523 13 16 13Z" stroke="#161719" stroke-linecap="round" stroke-linejoin="round"/>
</svg>
