<svg width="16" height="16" viewBox="0 0 16 16" fill="none" xmlns="http://www.w3.org/2000/svg">
<g id="Search">
<path id="Vector" fill-rule="evenodd" clip-rule="evenodd" d="M6.85756 1.53571C3.91862 1.53571 1.53613 3.91819 1.53613 6.85713C1.53613 9.79608 3.91862 12.1786 6.85756 12.1786C8.05656 12.1786 9.16294 11.782 10.0527 11.1129L12.0415 13.1017C12.3344 13.3946 12.8093 13.3946 13.1022 13.1017C13.3951 12.8088 13.3951 12.334 13.1022 12.0411L11.1134 10.0523C11.7825 9.16251 12.179 8.05613 12.179 6.85713C12.179 3.91819 9.7965 1.53571 6.85756 1.53571ZM3.03613 6.85713C3.03613 4.74662 4.74704 3.03571 6.85756 3.03571C8.96808 3.03571 10.679 4.74662 10.679 6.85713C10.679 8.96765 8.96808 10.6786 6.85756 10.6786C4.74704 10.6786 3.03613 8.96765 3.03613 6.85713Z" fill="#A3A6AC"/>
</g>
</svg>
